<?xml version="1.0" encoding="UTF-8" standalone="no"?>
<svg
   xmlns:dc="http://purl.org/dc/elements/1.1/"
   xmlns:cc="http://creativecommons.org/ns#"
   xmlns:rdf="http://www.w3.org/1999/02/22-rdf-syntax-ns#"
   xmlns:svg="http://www.w3.org/2000/svg"
   xmlns="http://www.w3.org/2000/svg"
   xmlns:sodipodi="http://sodipodi.sourceforge.net/DTD/sodipodi-0.dtd"
   xmlns:inkscape="http://www.inkscape.org/namespaces/inkscape"
   width="24"
   height="24"
   viewBox="0 0 24 24"
   fill="none"
   version="1.1"
   id="svg4"
   sodipodi:docname="icon_zoom_tool.svg"
   inkscape:version="1.0.2 (e86c870879, 2021-01-15, custom)">
  <metadata
     id="metadata10">
    <rdf:RDF>
      <cc:Work
         rdf:about="">
        <dc:format>image/svg+xml</dc:format>
        <dc:type
           rdf:resource="http://purl.org/dc/dcmitype/StillImage" />
        <dc:title></dc:title>
      </cc:Work>
    </rdf:RDF>
  </metadata>
  <defs
     id="defs8" />
  <sodipodi:namedview
     pagecolor="#ffffff"
     bordercolor="#666666"
     borderopacity="1"
     objecttolerance="10"
     gridtolerance="10"
     guidetolerance="10"
     inkscape:pageopacity="0"
     inkscape:pageshadow="2"
     inkscape:window-width="1883"
     inkscape:window-height="994"
     id="namedview6"
     showgrid="false"
     inkscape:zoom="21.490995"
     inkscape:cx="13.224014"
     inkscape:cy="14.152487"
     inkscape:window-x="0"
     inkscape:window-y="0"
     inkscape:window-maximized="0"
     inkscape:current-layer="svg4" />
  <path
     d="M 19.211345,19.211333 14.403782,14.40377 m 1.602541,-4.006263 c 0,0.736519 -0.145068,1.465886 -0.426972,2.146397 -0.281843,0.68051 -0.694993,1.298823 -1.215833,1.819602 -0.520839,0.52084 -1.139152,0.93399 -1.819662,1.215833 -0.680451,0.281904 -1.409818,0.426972 -2.146397,0.426972 -0.736519,0 -1.465892,-0.145068 -2.146385,-0.426972 C 7.5705816,15.297496 6.9522688,14.884346 6.4314415,14.363506 5.9106141,13.842727 5.4974701,13.224414 5.2156027,12.543904 4.9337292,11.863393 4.788655,11.134026 4.788655,10.397507 4.788655,8.909939 5.3795826,7.4833123 6.4314415,6.4314535 7.4833003,5.3795947 8.909927,4.788667 10.397459,4.788667 c 1.48758,0 2.914225,0.5909277 3.966059,1.6427865 1.051835,1.0518588 1.642805,2.4784855 1.642805,3.9660535 z"
     stroke="#cbced2"
     stroke-width="1.80284"
     stroke-linecap="round"
     stroke-linejoin="round"
     id="path2" />
</svg>
