<?xml version="1.0" encoding="UTF-8" standalone="no"?>
<svg
   xmlns:dc="http://purl.org/dc/elements/1.1/"
   xmlns:cc="http://creativecommons.org/ns#"
   xmlns:rdf="http://www.w3.org/1999/02/22-rdf-syntax-ns#"
   xmlns:svg="http://www.w3.org/2000/svg"
   xmlns="http://www.w3.org/2000/svg"
   xmlns:sodipodi="http://sodipodi.sourceforge.net/DTD/sodipodi-0.dtd"
   xmlns:inkscape="http://www.inkscape.org/namespaces/inkscape"
   width="24"
   height="24"
   viewBox="0 0 24 24"
   fill="none"
   version="1.1"
   id="svg4"
   sodipodi:docname="icon_pan_tool.svg"
   inkscape:version="1.0.2 (e86c870879, 2021-01-15, custom)">
  <metadata
     id="metadata10">
    <rdf:RDF>
      <cc:Work
         rdf:about="">
        <dc:format>image/svg+xml</dc:format>
        <dc:type
           rdf:resource="http://purl.org/dc/dcmitype/StillImage" />
        <dc:title></dc:title>
      </cc:Work>
    </rdf:RDF>
  </metadata>
  <defs
     id="defs8" />
  <sodipodi:namedview
     pagecolor="#ffffff"
     bordercolor="#666666"
     borderopacity="1"
     objecttolerance="10"
     gridtolerance="10"
     guidetolerance="10"
     inkscape:pageopacity="0"
     inkscape:pageshadow="2"
     inkscape:window-width="1920"
     inkscape:window-height="1008"
     id="namedview6"
     showgrid="false"
     inkscape:zoom="31.518519"
     inkscape:cx="14.262487"
     inkscape:cy="11.948767"
     inkscape:window-x="0"
     inkscape:window-y="0"
     inkscape:window-maximized="1"
     inkscape:current-layer="svg4" />
  <path
     d="M 18.135422,8.1406255 C 17.319663,8.1257675 16.651871,8.7763718 16.651871,9.5533428 V 12.574247 H 16.360893 V 6.4704069 c 0,-0.7769712 -0.667792,-1.4275755 -1.483552,-1.4127176 -0.790565,0.01441 -1.42678,0.6291322 -1.42678,1.3853514 v 6.1312063 h -0.290979 v -7.45479 c 0,-0.7769713 -0.667791,-1.4275755 -1.483551,-1.412715 -0.790566,0.01441 -1.426781,0.6291297 -1.426781,1.3853487 V 12.574247 H 9.9582504 V 6.505046 C 9.9582504,5.7280746 9.2904863,5.0774704 8.474693,5.0923284 7.6841541,5.106738 7.0479663,5.7214606 7.0479663,6.4776796 V 14.652386 L 5.8966611,13.144864 C 5.423992,12.526033 4.5139514,12.389135 3.8639399,12.839285 3.2140381,13.289369 3.0703431,14.155923 3.5430089,14.774822 l 4.5691726,5.982484 c 0.1619975,0.212071 0.3743815,0.384689 0.6198156,0.503661 0.2454272,0.11904 0.5169441,0.181039 0.7923656,0.181107 h 7.1880123 c 0.810328,0 1.514177,-0.530824 1.699766,-1.281937 l 0.964338,-3.902512 c 0.123318,-0.499248 0.185656,-1.010379 0.185656,-1.523276 V 9.525977 c 6.8e-5,-0.7562193 -0.636147,-1.3709418 -1.426713,-1.3853515 z"
     fill="#cbced2"
     id="path2"
     style="stroke-width:0.679064" />
</svg>
